<svg width="34" height="34" viewBox="0 0 34 34" fill="none" xmlns="http://www.w3.org/2000/svg">
<circle cx="17.0344" cy="19.3057" r="11.1941" fill="black"/>
<mask id="mask0_21_1364" style="mask-type:alpha" maskUnits="userSpaceOnUse" x="0" y="0" width="34" height="34">
<path fill-rule="evenodd" clip-rule="evenodd" d="M4.97962 4.97919C11.6185 -1.65973 22.3823 -1.65973 29.0208 4.97919C35.2336 11.192 35.6323 21.0167 30.2173 27.6934C28.9939 29.2019 28.7848 29.332 27.6934 30.2172C21.017 35.6322 11.192 35.2336 4.97919 29.0207C-1.65973 22.3818 -1.65973 11.618 4.97919 4.97948L4.97962 4.97919ZM10.6977 15.4339C9.71202 15.4339 8.91314 16.2327 8.91314 17.2184C8.91314 18.204 9.71202 19.003 10.6977 19.003H23.7393C24.7248 19.003 25.5238 18.204 25.5238 17.2184C25.5238 16.2327 24.7248 15.4339 23.7393 15.4339H10.6977Z" fill="#FFC657"/>
</mask>
<g mask="url(#mask0_21_1364)">
<circle cx="17.0344" cy="17.0344" r="17.0344" fill="#FFC657"/>
</g>
</svg>
