<svg width="34" height="34" viewBox="0 0 34 34" fill="none" xmlns="http://www.w3.org/2000/svg">
<circle cx="17" cy="17" r="13.3571" fill="black"/>
<path fill-rule="evenodd" clip-rule="evenodd" d="M34 17C34 7.61124 26.3888 0 17 0C7.61124 0 0 7.61124 0 17C0 26.3888 7.61124 34 17 34C26.3888 34 34 26.3888 34 17ZM6.8 17C6.8 16.0612 7.56116 15.3 8.5 15.3H15.3V8.5C15.3 7.56116 16.0612 6.8 17 6.8C17.9388 6.8 18.7 7.56116 18.7 8.5V15.3H25.5C26.4388 15.3 27.2 16.0612 27.2 17C27.2 17.9388 26.4388 18.7 25.5 18.7H18.7V25.5C18.7 26.4388 17.9388 27.2 17 27.2C16.0612 27.2 15.3 26.4388 15.3 25.5V18.7H8.5C7.56116 18.7 6.8 17.9388 6.8 17Z" fill="#FFC657"/>
</svg>
