<svg width="8" height="14" viewBox="0 0 8 14" fill="none" xmlns="http://www.w3.org/2000/svg">
<path d="M6.6475 13.7788L0.244966 7.57766H0.244921C0.0884337 7.42632 0 7.21764 0 6.99957C0 6.7815 0.0884302 6.57282 0.244921 6.42148L6.64746 0.22175C6.79913 0.0767023 7.00145 -0.00288586 7.21095 8.00144e-05C7.4205 0.00304484 7.62051 0.0883393 7.76803 0.23763C7.91557 0.386917 7.99881 0.588292 8 0.798519L8 13.2015C7.99882 13.4117 7.91557 13.6131 7.76803 13.7624C7.6205 13.9117 7.4205 13.997 7.21095 13.9999C7.00145 14.0029 6.79913 13.9233 6.64746 13.7783L6.6475 13.7788Z" fill="white"/>
</svg>
